<?xml version="1.0" encoding="utf-8"?>
<!-- Generator: Adobe Illustrator 16.0.0, SVG Export Plug-In . SVG Version: 6.00 Build 0)  -->
<!DOCTYPE svg PUBLIC "-//W3C//DTD SVG 1.1//EN" "http://www.w3.org/Graphics/SVG/1.1/DTD/svg11.dtd">
<svg version="1.1" id="Layer_1" xmlns="http://www.w3.org/2000/svg" xmlns:xlink="http://www.w3.org/1999/xlink" x="0px" y="0px"
	 width="1000px" height="1000px" viewBox="0 0 1000 1000" enable-background="new 0 0 1000 1000" xml:space="preserve">
<g>
	<path d="M915.465,73.536C908.474,66.544,898.896,63,887,63c-32.647,0-79.573,26.645-122.465,69.536
		c-1.957,1.958-3.035,4.431-3.035,6.964s1.078,5.007,3.035,6.964c1.958,1.958,4.432,3.036,6.965,3.036s5.007-1.078,6.965-3.036
		C781.302,143.627,785.506,142,790,142c2.493,0,6.741,1.67,9.535,4.464C802.498,149.427,804,152.972,804,157
		c0,3.688-1.752,7.824-4.465,10.536l-207,207c-0.173,0.184-0.595,0.818-0.875,1.238c-0.448,0.673-0.942,1.414-1.521,2.101
		c-36.924,70.61-87.682,121.306-169.607,169.437L419.36,548h-0.282c-0.184,0.176-0.384,0.376-0.543,0.535l-327,327
		c-7.917,7.917-12.189,18.362-12.032,29.411c0.15,10.533,4.368,20.25,11.876,27.368C100.004,939.959,109.9,944,120,944
		c11.233,0,20.81-3.881,28.464-11.535l707.998-708.998c25.447-24.54,47.281-54.95,59.969-83.498
		C929.379,111.298,929.022,87.094,915.465,73.536z M897.596,132.97l-0.051,0.113c-11.699,25.528-31.591,53.034-56.01,77.453
		L133.682,918.389c-3.338,3.887-8.355,6.111-13.807,6.111c-5.368,0-10.62-2.174-14.411-5.965c-8.001-8.001-8.001-20.069,0-28.07
		l326.448-326.448l0.545-0.322c83.657-49.388,136.032-101.738,175.13-175.047l0.342-0.64l0.509-0.517l204-207
		C819.16,173.769,823,164.852,823,156l0.024-0.498c0.845-8.446-2.55-16.958-9.56-23.967c-0.727-0.726-2.427-2.426-3.701-3.063
		l-7.235-3.618L809,120c30.505-22.878,58.935-36,78-36c3.076,0,9.739,0.897,13.326,4.262
		C907.896,94.621,906.886,111.293,897.596,132.97z"/>
</g>
</svg>
