<?xml version="1.0" encoding="utf-8"?>
<!-- Generator: Adobe Illustrator 16.0.0, SVG Export Plug-In . SVG Version: 6.00 Build 0)  -->
<!DOCTYPE svg PUBLIC "-//W3C//DTD SVG 1.1//EN" "http://www.w3.org/Graphics/SVG/1.1/DTD/svg11.dtd">
<svg version="1.1" id="Layer_1" xmlns="http://www.w3.org/2000/svg" xmlns:xlink="http://www.w3.org/1999/xlink" x="0px" y="0px"
	 width="50px" height="50px" viewBox="0 0 50 50" enable-background="new 0 0 50 50" xml:space="preserve">
<g>
	<path fill="#AAABBD" d="M24.858,0h0.283c5.066,0,9.802,1.492,14.205,4.475c0.899,0.639,1.848,1.42,2.842,2.344
		c1.184,1.16,1.953,1.988,2.309,2.486c0.923,1.184,1.621,2.189,2.095,3.018C48.863,16.277,50,20.455,50,24.858v0.284
		c0,5.067-1.491,9.801-4.475,14.206c-0.639,0.899-1.42,1.846-2.344,2.84c-1.16,1.186-1.988,1.953-2.486,2.31
		c-1.184,0.923-2.189,1.621-3.019,2.095C33.725,48.863,29.546,50,25.142,50h-0.283c-5.067,0-9.802-1.491-14.205-4.475
		c-0.9-0.64-1.847-1.42-2.841-2.344c-1.184-1.158-1.953-1.988-2.308-2.486c-0.923-1.184-1.622-2.188-2.095-3.019
		C1.136,33.725,0,29.545,0,25.142v-0.284c0-5.065,1.492-9.801,4.475-14.205c0.639-0.899,1.42-1.847,2.344-2.841
		c1.159-1.184,1.988-1.953,2.486-2.308c1.184-0.923,2.189-1.621,3.018-2.095C16.276,1.136,20.455,0,24.858,0z M13.565,15.731
		c-0.781,0.403-1.172,0.923-1.172,1.562v16.619c0,0.283,0.071,0.546,0.213,0.781c0.402,0.662,0.923,0.994,1.562,0.994h22.053
		c0.262,0,0.51-0.07,0.746-0.213c0.662-0.402,0.994-0.924,0.994-1.562V17.365c0-0.284-0.061-0.545-0.178-0.781
		c-0.402-0.663-0.924-0.995-1.562-0.995H13.991C13.897,15.589,13.755,15.637,13.565,15.731z M25.178,28.906l9.126-7.28h0.035v10.405
		H16.051V21.626L25.178,28.906z M31.285,19.247l-6.179,4.936c-4.025-3.196-6.072-4.841-6.144-4.936H31.285z"/>
</g>
</svg>
