<?xml version="1.0" encoding="utf-8"?>
<!-- Generator: Adobe Illustrator 16.0.0, SVG Export Plug-In . SVG Version: 6.00 Build 0)  -->
<!DOCTYPE svg PUBLIC "-//W3C//DTD SVG 1.1//EN" "http://www.w3.org/Graphics/SVG/1.1/DTD/svg11.dtd">
<svg version="1.1" id="Layer_1" xmlns="http://www.w3.org/2000/svg" xmlns:xlink="http://www.w3.org/1999/xlink" x="0px" y="0px"
	 width="50px" height="50px" viewBox="0 0 50 50" enable-background="new 0 0 50 50" xml:space="preserve">
<g>
	<path fill="#AAABBD" d="M24.857,0h0.284c5.066,0,9.8,1.492,14.205,4.474c0.899,0.639,1.846,1.42,2.842,2.344
		c1.183,1.16,1.953,1.989,2.308,2.486c0.924,1.184,1.621,2.189,2.096,3.019C48.863,16.276,50,20.455,50,24.858v0.284
		c0,5.066-1.492,9.801-4.475,14.206c-0.641,0.899-1.422,1.846-2.344,2.84c-1.16,1.186-1.99,1.953-2.486,2.309
		c-1.184,0.924-2.189,1.622-3.02,2.096C33.725,48.864,29.545,50,25.142,50h-0.284c-5.066,0-9.801-1.492-14.205-4.475
		c-0.9-0.641-1.846-1.422-2.841-2.344c-1.185-1.16-1.953-1.988-2.309-2.486c-0.923-1.184-1.622-2.188-2.095-3.019
		C1.136,33.725,0,29.545,0,25.142v-0.284c0-5.066,1.492-9.801,4.474-14.205c0.639-0.899,1.42-1.846,2.344-2.841
		c1.16-1.184,1.989-1.953,2.486-2.309c1.184-0.923,2.189-1.621,3.018-2.095C16.275,1.137,20.454,0,24.857,0z M27.166,9.872
		c0,0-0.449,0.178-1.35,0.533c-1.374,0.545-2.393,1.385-3.054,2.521c-0.688,1.185-1.03,2.545-1.03,4.084v4.119h-4.723v0.036v5.433
		v0.036h4.723v14.027h0.035h5.612h0.034V26.634h4.724c0.023-0.165,0.262-1.989,0.711-5.469c0-0.023-0.014-0.036-0.035-0.036h-5.398
		v-3.054c0-0.853,0.036-1.385,0.105-1.598c0-0.071,0.071-0.249,0.215-0.533c0.213-0.355,0.556-0.615,1.029-0.781
		c0.307-0.119,0.887-0.178,1.739-0.178h2.521V14.95v-4.829v-0.036c-1.303-0.143-2.674-0.213-4.119-0.213h-0.143
		C27.698,9.872,27.166,9.872,27.166,9.872z"/>
</g>
</svg>
