<?xml version="1.0" encoding="utf-8"?>
<!-- Generator: Adobe Illustrator 16.0.0, SVG Export Plug-In . SVG Version: 6.00 Build 0)  -->
<!DOCTYPE svg PUBLIC "-//W3C//DTD SVG 1.1//EN" "http://www.w3.org/Graphics/SVG/1.1/DTD/svg11.dtd">
<svg version="1.1" id="Layer_1" xmlns="http://www.w3.org/2000/svg" xmlns:xlink="http://www.w3.org/1999/xlink" x="0px" y="0px"
	 width="1000px" height="1000px" viewBox="0 0 1000 1000" enable-background="new 0 0 1000 1000" xml:space="preserve">
<g>
	<path fill="none" d="M932.116,362.862c2.38,5.23,5.463,7.106,9.174,7.106c4.815,0,10.692-3.155,17.482-6.245l0.436-0.202
		c12.016-5.47,22.325-8.641,16.867-20.665l-32.7-71.86c-2.381-5.23-5.465-7.106-9.178-7.106c-4.817-0.002-10.695,3.156-17.479,6.245
		l-0.437,0.201c-12.013,5.471-22.323,8.641-16.866,20.666l7.406,16.281L524.413,481.265l52.138,23.721l348.16-158.403
		L932.116,362.862z"/>
	<path fill="none" d="M24.371,727.05c-3.849,3.477-1.588,9.062,3.295,9.062c0.261,0,0.528-0.017,0.802-0.05l54.547-6.533
		l392.574-178.61l-52.139-23.722L65.128,690.22L24.371,727.05z"/>
	<line fill="none" x1="934.197" y1="243.671" x2="934.199" y2="243.671"/>
	<path d="M989.181,712.045l-40.751-36.826l-2.329-2.104l-2.856-1.299L600.961,516.091L914.74,373.33
		c5.659,10.749,15.226,16.858,26.55,16.858c8.544,0,15.846-3.405,22.906-6.696c0.96-0.448,1.943-0.906,2.947-1.363l0.069-0.031
		l0.069-0.032l0.369-0.171c0.983-0.447,1.954-0.878,2.904-1.3c9.196-4.082,20.64-9.162,25.39-21.649
		c2.004-5.271,3.378-13.788-1.461-24.446l-32.707-71.877c-5.483-12.043-15.536-18.95-27.58-18.951
		c-8.553-0.001-15.86,3.408-22.928,6.706c-0.955,0.446-1.932,0.902-2.932,1.355l-0.05,0.023l-0.051,0.023l-0.393,0.181
		c-0.988,0.45-1.963,0.882-2.916,1.305c-9.194,4.082-20.637,9.162-25.385,21.648c-1.868,4.911-3.188,12.648,0.562,22.311
		L500,470.158L119.894,297.225c3.75-9.667,2.431-17.4,0.562-22.311c-4.748-12.486-16.19-17.566-25.386-21.647
		c-0.954-0.424-1.928-0.855-2.916-1.306l-0.393-0.181l-0.05-0.023l-0.051-0.023c-0.997-0.453-1.972-0.908-2.926-1.354
		c-7.069-3.298-14.377-6.708-22.929-6.708c-12.045,0-22.098,6.905-27.58,18.948L5.524,334.482
		c-4.846,10.675-3.473,19.193-1.468,24.463c4.749,12.487,16.193,17.567,25.39,21.649c0.949,0.422,1.921,0.852,2.904,1.3l0.369,0.171
		l0.069,0.032l0.07,0.031c1.003,0.457,1.986,0.915,2.947,1.363c7.061,3.291,14.363,6.696,22.905,6.696
		c11.328,0,20.894-6.11,26.551-16.857l313.778,142.76L56.755,671.815l-2.856,1.3l-2.328,2.104L10.815,712.05
		c-8,7.222-10.725,18.26-6.934,28.114c3.776,9.821,13.113,16.165,23.783,16.165c1.065,0,2.146-0.066,3.213-0.194l54.542-6.531
		l3.113-0.374l2.855-1.299L500,562.022l408.613,185.908l2.854,1.299l3.114,0.374l54.547,6.532c1.061,0.127,2.143,0.193,3.208,0.193
		c10.67,0,20.007-6.346,23.784-16.164C999.909,730.312,997.187,719.274,989.181,712.045z M906.821,307.283l-7.406-16.281
		c-5.459-12.025,4.854-15.195,16.866-20.666l0.437-0.201c6.784-3.089,12.661-6.247,17.479-6.245c3.714,0,6.798,1.877,9.178,7.106
		l32.701,71.86c5.459,12.024-4.852,15.195-16.867,20.665l-0.436,0.202c-6.791,3.089-12.666,6.245-17.482,6.245
		c-3.711,0-6.794-1.878-9.174-7.106l-7.407-16.281L576.551,504.985l-52.138-23.721L906.821,307.283z M83.015,729.529l-54.547,6.533
		c-0.274,0.033-0.542,0.05-0.802,0.05c-4.883,0-7.144-5.586-3.295-9.062l40.757-36.829L423.45,527.198l52.139,23.722L83.015,729.529
		z M972.335,736.111c-0.261,0-0.528-0.017-0.804-0.049l-54.548-6.534L75.289,346.579l-7.406,16.282
		c-2.38,5.231-5.462,7.106-9.175,7.106c-4.815,0-10.692-3.157-17.481-6.245l-0.436-0.202c-12.014-5.47-22.325-8.641-16.867-20.665
		l32.701-71.86c2.382-5.231,5.464-7.108,9.178-7.107c4.816,0,10.694,3.157,17.478,6.246l0.437,0.201
		c12.014,5.471,22.324,8.641,16.866,20.666l-7.406,16.281L934.872,690.22l40.758,36.829
		C979.479,730.525,977.22,736.111,972.335,736.111z"/>
</g>
</svg>
