<?xml version="1.0" encoding="utf-8"?>
<!-- Generator: Adobe Illustrator 16.0.0, SVG Export Plug-In . SVG Version: 6.00 Build 0)  -->
<!DOCTYPE svg PUBLIC "-//W3C//DTD SVG 1.1//EN" "http://www.w3.org/Graphics/SVG/1.1/DTD/svg11.dtd">
<svg version="1.1" id="Layer_1" xmlns="http://www.w3.org/2000/svg" xmlns:xlink="http://www.w3.org/1999/xlink" x="0px" y="0px"
	 width="12px" height="16px" viewBox="0 0 12 16" enable-background="new 0 0 12 16" xml:space="preserve">
<title>location</title>
<desc>Created with Sketch.</desc>
<g id="Octicons">
	<g id="location">
		<path id="Shape" fill="#AAAAAA" d="M6,0C2.69,0,0,2.5,0,5.5C0,10.02,6,16,6,16s6-5.98,6-10.5C12,2.5,9.311,0,6,0L6,0z M6,14.55
			C4.14,12.52,1,8.44,1,5.5C1,3.02,3.25,1,6,1c1.34,0,2.609,0.48,3.561,1.36C10.48,3.22,11,4.33,11,5.5C11,8.44,7.859,12.52,6,14.55
			L6,14.55z M8,5.5c0,1.11-0.891,2-2,2c-1.11,0-2-0.89-2-2s0.89-2,2-2C7.109,3.5,8,4.39,8,5.5L8,5.5z"/>
	</g>
</g>
</svg>
