<?xml version="1.0" encoding="utf-8"?>
<!-- Generator: Adobe Illustrator 16.0.0, SVG Export Plug-In . SVG Version: 6.00 Build 0)  -->
<!DOCTYPE svg PUBLIC "-//W3C//DTD SVG 1.1//EN" "http://www.w3.org/Graphics/SVG/1.1/DTD/svg11.dtd">
<svg version="1.1" id="Layer_1" xmlns="http://www.w3.org/2000/svg" xmlns:xlink="http://www.w3.org/1999/xlink" x="0px" y="0px"
	 width="1000px" height="1000px" viewBox="0 0 1000 1000" enable-background="new 0 0 1000 1000" xml:space="preserve">
<g>
	<path d="M117.161,260.22c24.911-24.911,85.04-18.04,134.864,31.783c49.823,49.824,56.693,109.953,31.783,134.864
		c-24.914,24.912-85.042,18.04-134.865-31.783C99.121,345.261,92.249,285.132,117.161,260.22z M267.486,410.545
		c13.744-13.744,8.59-60.129-32.643-101.362c-40.372-40.373-87.617-46.386-101.361-32.643
		c-13.746,13.746-8.591,60.13,32.641,101.362C206.496,419.996,252.883,425.148,267.486,410.545z"/>
	<path d="M259.755,117.625c24.912-24.911,85.041-18.039,134.864,31.784c49.823,49.823,56.695,109.952,31.783,134.863
		c-24.911,24.911-85.04,18.041-134.863-31.783C241.715,202.667,234.844,142.536,259.755,117.625z M410.081,267.951
		c13.744-13.744,8.589-60.129-32.642-101.362c-40.374-40.372-87.618-46.386-101.362-32.643
		c-13.745,13.745-8.591,60.131,32.641,101.363C349.95,276.542,396.337,281.694,410.081,267.951z"/>
	<g>
		<path d="M312.155,455.213c1.717-1.717,2.577-2.576,4.293-4.294c11.168-11.167,28.348-11.167,39.516,0l348.755,348.755
			c35.222,35.22,168.367,139.159,219.907,137.442c6.872-0.001,12.024-5.155,11.166-11.167
			c1.719-51.541-103.08-185.546-137.439-219.906L449.596,357.288c-9.45-12.886-9.45-30.065,1.718-41.233
			c1.718-1.718,2.577-2.577,4.294-4.295c43.81-43.81,30.065-129.71-31.782-191.559C361.978,58.354,276.077,44.609,232.267,88.42
			c-31.782,31.783-32.642,84.182-8.589,134.004c-49.823-24.053-103.081-22.335-134.007,8.592
			c-43.808,43.807-30.064,129.707,31.785,191.555C182.443,485.28,267.485,499.882,312.155,455.213z M371.426,433.738
			c-11.168-9.448-24.912-14.601-38.656-12.884c6.013-21.475,5.154-46.386-2.576-71.298l219.905,219.905v44.668L371.426,433.738
			l1.717,1.718 M782.889,721.507c34.361,34.36,114.249,140.017,127.992,189.838c-49.822-13.742-154.62-92.771-189.839-127.991
			L575.011,637.322v-61.848l62.708,0.859L782.889,721.507z M434.133,372.75l179.533,179.533h-44.67L349.091,332.377
			c24.912,7.73,49.822,8.59,70.439,1.717C418.67,346.98,422.967,361.583,434.133,372.75
			C433.274,371.891,434.133,372.75,434.133,372.75L434.133,372.75 M248.588,106.458c34.36-34.36,105.657-19.756,158.057,32.643
			c52.399,52.4,67.003,123.698,32.643,158.058c-34.361,34.36-106.518,18.898-158.917-33.502
			C227.972,211.257,214.228,140.818,248.588,106.458z M105.994,249.052c34.359-34.36,105.655-19.756,158.056,32.644
			c52.398,52.4,67.003,123.697,32.643,158.056c-34.36,34.361-105.658,19.758-158.058-32.642
			C86.236,354.711,70.774,284.272,105.994,249.052z"/>
		<path d="M630.845,679.416c13.744,13.744,36.079,13.742,48.965,0.857c13.743-13.744,12.885-35.219-0.86-48.963
			c-13.744-13.745-36.078-13.745-48.962-0.858C617.103,645.055,617.101,665.671,630.845,679.416z M647.168,647.632
			c4.294-4.296,11.166-4.296,15.462,0c4.294,4.296,4.292,11.165-0.001,15.461c-4.298,4.295-11.167,4.296-15.461,0.001
			C642.872,658.798,642.872,651.928,647.168,647.632z"/>
	</g>
</g>
</svg>
