<?xml version="1.0" encoding="utf-8"?>
<!-- Generator: Adobe Illustrator 16.0.0, SVG Export Plug-In . SVG Version: 6.00 Build 0)  -->
<!DOCTYPE svg PUBLIC "-//W3C//DTD SVG 1.1//EN" "http://www.w3.org/Graphics/SVG/1.1/DTD/svg11.dtd">
<svg version="1.1" id="Layer_1" xmlns="http://www.w3.org/2000/svg" xmlns:xlink="http://www.w3.org/1999/xlink" x="0px" y="0px"
	 width="1000px" height="1000px" viewBox="0 0 1000 1000" enable-background="new 0 0 1000 1000" xml:space="preserve">
<title>Group 11</title>
<desc>Created with Sketch.</desc>
<g>
	<g transform="translate(-1081.000000, -393.000000)">
		<g transform="translate(1081.000000, 393.000000)">
			<path d="M225.281,206.112c-10.567,0-19.167,8.6-19.167,19.167v549.442c0,10.567,8.599,19.167,19.167,19.167h549.442
				c10.567,0,19.167-8.6,19.167-19.167V225.279c0-10.567-8.6-19.167-19.167-19.167H225.281z M774.723,819.443H225.281
				c-24.661,0-44.722-20.062-44.722-44.723V225.279c0-24.661,20.061-44.722,44.722-44.722h549.442
				c24.661,0,44.722,20.061,44.722,44.722v549.442C819.444,799.382,799.384,819.443,774.723,819.443L774.723,819.443z"/>
			<path d="M327.502,742.777h-57.5c-7.066,0-12.777-5.725-12.777-12.778v-57.5c0-7.054,5.711-12.777,12.777-12.777
				c7.066,0,12.778,5.724,12.778,12.777v44.722h44.722c7.066,0,12.778,5.725,12.778,12.778S334.568,742.777,327.502,742.777"/>
			<path d="M270.002,486.642c-7.066,0-12.777-5.724-12.777-12.777V379.77c0-7.054,5.711-12.778,12.777-12.778
				c7.066,0,12.778,5.725,12.778,12.778v94.095C282.78,480.918,277.069,486.642,270.002,486.642 M270.002,633.011
				c-7.066,0-12.777-5.725-12.777-12.778v-94.094c0-7.054,5.711-12.778,12.777-12.778c7.066,0,12.778,5.725,12.778,12.778v94.094
				C282.78,627.286,277.069,633.011,270.002,633.011"/>
			<path d="M270.002,340.278c-7.066,0-12.777-5.724-12.777-12.777v-57.5c0-7.053,5.711-12.777,12.777-12.777h57.5
				c7.066,0,12.778,5.724,12.778,12.777c0,7.054-5.712,12.778-12.778,12.778H282.78v44.722
				C282.78,334.554,277.069,340.278,270.002,340.278"/>
			<path d="M473.86,282.779h-94.083c-7.066,0-12.778-5.724-12.778-12.778c0-7.053,5.711-12.777,12.778-12.777h94.083
				c7.066,0,12.778,5.724,12.778,12.777C486.638,277.055,480.926,282.779,473.86,282.779 M620.229,282.779h-94.095
				c-7.066,0-12.778-5.724-12.778-12.778c0-7.053,5.712-12.777,12.778-12.777h94.095c7.066,0,12.777,5.724,12.777,12.777
				C633.006,277.055,627.295,282.779,620.229,282.779"/>
			<path d="M730.001,340.278c-7.066,0-12.778-5.724-12.778-12.777v-44.722h-44.722c-7.066,0-12.778-5.724-12.778-12.778
				c0-7.053,5.712-12.777,12.778-12.777h57.5c7.066,0,12.777,5.724,12.777,12.777v57.5
				C742.778,334.554,737.067,340.278,730.001,340.278"/>
			<path d="M730.001,486.642c-7.066,0-12.778-5.724-12.778-12.777V379.77c0-7.054,5.712-12.778,12.778-12.778
				s12.777,5.725,12.777,12.778v94.095C742.778,480.918,737.067,486.642,730.001,486.642 M730.001,633.011
				c-7.066,0-12.778-5.725-12.778-12.778v-94.094c0-7.054,5.712-12.778,12.778-12.778s12.777,5.725,12.777,12.778v94.094
				C742.778,627.286,737.067,633.011,730.001,633.011"/>
			<path d="M730.001,742.777h-57.5c-7.066,0-12.778-5.725-12.778-12.778s5.712-12.778,12.778-12.778h44.722v-44.722
				c0-7.054,5.712-12.777,12.778-12.777s12.777,5.724,12.777,12.777v57.5C742.778,737.053,737.067,742.777,730.001,742.777"/>
			<path d="M473.871,742.777h-94.095c-7.065,0-12.777-5.725-12.777-12.778s5.712-12.778,12.777-12.778h94.095
				c7.066,0,12.778,5.725,12.778,12.778S480.937,742.777,473.871,742.777 M620.228,742.777h-94.083
				c-7.066,0-12.777-5.725-12.777-12.778s5.711-12.778,12.777-12.778h94.083c7.065,0,12.777,5.725,12.777,12.778
				S627.293,742.777,620.228,742.777"/>
			<path d="M244.447,206.112c-7.066,0-12.778-5.724-12.778-12.777v-63.889c0-7.053,5.712-12.778,12.778-12.778
				s12.778,5.725,12.778,12.778v63.889C257.225,200.388,251.513,206.112,244.447,206.112"/>
			<path d="M308.336,206.112c-7.066,0-12.778-5.724-12.778-12.777v-63.889c0-7.053,5.712-12.778,12.778-12.778
				s12.778,5.725,12.778,12.778v63.889C321.114,200.388,315.402,206.112,308.336,206.112"/>
			<path d="M372.225,206.112c-7.066,0-12.778-5.724-12.778-12.777v-63.889c0-7.053,5.712-12.778,12.778-12.778
				c7.066,0,12.778,5.725,12.778,12.778v63.889C385.002,200.388,379.291,206.112,372.225,206.112"/>
			<path d="M436.113,206.112c-7.066,0-12.777-5.724-12.777-12.777v-63.889c0-7.053,5.711-12.778,12.777-12.778
				c7.066,0,12.778,5.725,12.778,12.778v63.889C448.891,200.388,443.179,206.112,436.113,206.112"/>
			<path d="M500.002,206.112c-7.066,0-12.778-5.724-12.778-12.777v-63.889c0-7.053,5.711-12.778,12.778-12.778
				s12.777,5.725,12.777,12.778v63.889C512.779,200.388,507.068,206.112,500.002,206.112"/>
			<path d="M563.891,206.112c-7.066,0-12.778-5.724-12.778-12.777v-63.889c0-7.053,5.712-12.778,12.778-12.778
				c7.065,0,12.777,5.725,12.777,12.778v63.889C576.668,200.388,570.956,206.112,563.891,206.112"/>
			<path d="M627.778,206.112c-7.065,0-12.777-5.724-12.777-12.777v-63.889c0-7.053,5.712-12.778,12.777-12.778
				c7.066,0,12.778,5.725,12.778,12.778v63.889C640.557,200.388,634.845,206.112,627.778,206.112"/>
			<path d="M691.668,206.112c-7.066,0-12.778-5.724-12.778-12.777v-63.889c0-7.053,5.712-12.778,12.778-12.778
				s12.777,5.725,12.777,12.778v63.889C704.445,200.388,698.734,206.112,691.668,206.112"/>
			<path d="M755.556,206.112c-7.065,0-12.777-5.724-12.777-12.777v-63.889c0-7.053,5.712-12.778,12.777-12.778
				c7.066,0,12.778,5.725,12.778,12.778v63.889C768.334,200.388,762.622,206.112,755.556,206.112"/>
			<path d="M244.447,883.332c-7.066,0-12.778-5.725-12.778-12.778v-63.889c0-7.053,5.712-12.777,12.778-12.777
				s12.778,5.725,12.778,12.777v63.889C257.225,877.607,251.513,883.332,244.447,883.332"/>
			<path d="M308.336,883.332c-7.066,0-12.778-5.725-12.778-12.778v-63.889c0-7.053,5.712-12.777,12.778-12.777
				s12.778,5.725,12.778,12.777v63.889C321.114,877.607,315.402,883.332,308.336,883.332"/>
			<path d="M372.225,883.332c-7.066,0-12.778-5.725-12.778-12.778v-63.889c0-7.053,5.712-12.777,12.778-12.777
				c7.066,0,12.778,5.725,12.778,12.777v63.889C385.002,877.607,379.291,883.332,372.225,883.332"/>
			<path d="M436.113,883.332c-7.066,0-12.777-5.725-12.777-12.778v-63.889c0-7.053,5.711-12.777,12.777-12.777
				c7.066,0,12.778,5.725,12.778,12.777v63.889C448.891,877.607,443.179,883.332,436.113,883.332"/>
			<path d="M500.002,883.332c-7.066,0-12.778-5.725-12.778-12.778v-63.889c0-7.053,5.711-12.777,12.778-12.777
				s12.777,5.725,12.777,12.777v63.889C512.779,877.607,507.068,883.332,500.002,883.332"/>
			<path d="M563.891,883.332c-7.066,0-12.778-5.725-12.778-12.778v-63.889c0-7.053,5.712-12.777,12.778-12.777
				c7.065,0,12.777,5.725,12.777,12.777v63.889C576.668,877.607,570.956,883.332,563.891,883.332"/>
			<path d="M627.778,883.332c-7.065,0-12.777-5.725-12.777-12.778v-63.889c0-7.053,5.712-12.777,12.777-12.777
				c7.066,0,12.778,5.725,12.778,12.777v63.889C640.557,877.607,634.845,883.332,627.778,883.332"/>
			<path d="M691.668,883.332c-7.066,0-12.778-5.725-12.778-12.778v-63.889c0-7.053,5.712-12.777,12.778-12.777
				s12.777,5.725,12.777,12.777v63.889C704.445,877.607,698.734,883.332,691.668,883.332"/>
			<path d="M755.556,883.332c-7.065,0-12.777-5.725-12.777-12.778v-63.889c0-7.053,5.712-12.777,12.777-12.777
				c7.066,0,12.778,5.725,12.778,12.777v63.889C768.334,877.607,762.622,883.332,755.556,883.332"/>
			<path d="M870.556,257.224h-63.889c-7.066,0-12.777-5.725-12.777-12.778c0-7.053,5.711-12.777,12.777-12.777h63.889
				c7.066,0,12.778,5.725,12.778,12.777C883.334,251.499,877.622,257.224,870.556,257.224"/>
			<path d="M870.556,321.112h-63.889c-7.066,0-12.777-5.724-12.777-12.778c0-7.053,5.711-12.777,12.777-12.777h63.889
				c7.066,0,12.778,5.724,12.778,12.777C883.334,315.388,877.622,321.112,870.556,321.112"/>
			<path d="M870.556,385h-63.889c-7.066,0-12.777-5.725-12.777-12.778s5.711-12.778,12.777-12.778h63.889
				c7.066,0,12.778,5.725,12.778,12.778S877.622,385,870.556,385"/>
			<path d="M870.556,448.889h-63.889c-7.066,0-12.777-5.724-12.777-12.777c0-7.054,5.711-12.778,12.777-12.778h63.889
				c7.066,0,12.778,5.725,12.778,12.778C883.334,443.165,877.622,448.889,870.556,448.889"/>
			<path d="M870.556,512.778h-63.889c-7.066,0-12.777-5.725-12.777-12.778c0-7.053,5.711-12.778,12.777-12.778h63.889
				c7.066,0,12.778,5.725,12.778,12.778C883.334,507.054,877.622,512.778,870.556,512.778"/>
			<path d="M870.556,576.666h-63.889c-7.066,0-12.777-5.725-12.777-12.777s5.711-12.777,12.777-12.777h63.889
				c7.066,0,12.778,5.725,12.778,12.777S877.622,576.666,870.556,576.666"/>
			<path d="M870.556,640.555h-63.889c-7.066,0-12.777-5.725-12.777-12.777c0-7.054,5.711-12.778,12.777-12.778h63.889
				c7.066,0,12.778,5.725,12.778,12.778C883.334,634.83,877.622,640.555,870.556,640.555"/>
			<path d="M870.556,704.443h-63.889c-7.066,0-12.777-5.725-12.777-12.777c0-7.054,5.711-12.778,12.777-12.778h63.889
				c7.066,0,12.778,5.725,12.778,12.778C883.334,698.719,877.622,704.443,870.556,704.443"/>
			<path d="M870.556,768.332h-63.889c-7.066,0-12.777-5.725-12.777-12.778c0-7.053,5.711-12.776,12.777-12.776h63.889
				c7.066,0,12.778,5.724,12.778,12.776C883.334,762.607,877.622,768.332,870.556,768.332"/>
			<path d="M193.336,257.224h-63.889c-7.066,0-12.778-5.725-12.778-12.778c0-7.053,5.712-12.777,12.778-12.777h63.889
				c7.066,0,12.778,5.725,12.778,12.777C206.114,251.499,200.402,257.224,193.336,257.224"/>
			<path d="M193.336,321.112h-63.889c-7.066,0-12.778-5.724-12.778-12.778c0-7.053,5.712-12.777,12.778-12.777h63.889
				c7.066,0,12.778,5.724,12.778,12.777C206.114,315.388,200.402,321.112,193.336,321.112"/>
			<path d="M193.336,385h-63.889c-7.066,0-12.778-5.725-12.778-12.778s5.712-12.778,12.778-12.778h63.889
				c7.066,0,12.778,5.725,12.778,12.778S200.402,385,193.336,385"/>
			<path d="M193.336,448.889h-63.889c-7.066,0-12.778-5.724-12.778-12.777c0-7.054,5.712-12.778,12.778-12.778h63.889
				c7.066,0,12.778,5.725,12.778,12.778C206.114,443.165,200.402,448.889,193.336,448.889"/>
			<path d="M193.336,512.778h-63.889c-7.066,0-12.778-5.725-12.778-12.778c0-7.053,5.712-12.778,12.778-12.778h63.889
				c7.066,0,12.778,5.725,12.778,12.778C206.114,507.054,200.402,512.778,193.336,512.778"/>
			<path d="M193.336,576.666h-63.889c-7.066,0-12.778-5.725-12.778-12.777s5.712-12.777,12.778-12.777h63.889
				c7.066,0,12.778,5.725,12.778,12.777S200.402,576.666,193.336,576.666"/>
			<path d="M193.336,640.555h-63.889c-7.066,0-12.778-5.725-12.778-12.777c0-7.054,5.712-12.778,12.778-12.778h63.889
				c7.066,0,12.778,5.725,12.778,12.778C206.114,634.83,200.402,640.555,193.336,640.555"/>
			<path d="M193.336,704.443h-63.889c-7.066,0-12.778-5.725-12.778-12.777c0-7.054,5.712-12.778,12.778-12.778h63.889
				c7.066,0,12.778,5.725,12.778,12.778C206.114,698.719,200.402,704.443,193.336,704.443"/>
			<path d="M193.336,768.332h-63.889c-7.066,0-12.778-5.725-12.778-12.778c0-7.053,5.712-12.776,12.778-12.776h63.889
				c7.066,0,12.778,5.724,12.778,12.776C206.114,762.607,200.402,768.332,193.336,768.332"/>
		</g>
	</g>
</g>
</svg>
