<?xml version="1.0" encoding="utf-8"?>
<!-- Generator: Adobe Illustrator 16.0.0, SVG Export Plug-In . SVG Version: 6.00 Build 0)  -->
<!DOCTYPE svg PUBLIC "-//W3C//DTD SVG 1.1//EN" "http://www.w3.org/Graphics/SVG/1.1/DTD/svg11.dtd">
<svg version="1.1" id="Layer_1" xmlns="http://www.w3.org/2000/svg" xmlns:xlink="http://www.w3.org/1999/xlink" x="0px" y="0px"
	 width="1000.08px" height="1000px" viewBox="0 0 1000.08 1000" enable-background="new 0 0 1000.08 1000" xml:space="preserve">
<g>
	<path fill="#FFFFFF" d="M598.298,721.161c-1.59,0.653-4.733,4.917-9.424,12.789c-4.697,7.876-8.662,17.066-11.905,27.56
		c-3.246,10.504-3.84,18.243-1.796,23.22c2.047,4.984,4.446,6.91,7.204,5.775c4.238-1.741,9.35-11.46,15.337-29.153
		c5.981-17.696,7.237-30.781,3.753-39.264C600.944,720.815,599.889,720.507,598.298,721.161z"/>
	<path fill="#FFFFFF" d="M704.496,677.533c-1.591,0.652-4.732,4.917-9.423,12.79c-4.697,7.875-8.662,17.064-11.906,27.559
		c-3.244,10.504-3.84,18.246-1.795,23.224c2.048,4.98,4.447,6.907,7.203,5.773c4.239-1.741,9.352-11.46,15.339-29.157
		c5.979-17.693,7.235-30.779,3.75-39.261C707.143,677.188,706.086,676.879,704.496,677.533z"/>
	<path fill="#FFFFFF" d="M820.33,622.518c-4.666,1.917-10.64,10.443-17.926,25.573c-7.287,15.137-10.229,24.398-8.837,27.786
		c0.782,1.908,2.02,2.515,3.718,1.816c5.725-2.351,11.958-11.288,18.712-26.825c6.748-15.529,9.56-24.675,8.427-27.43
		C823.815,621.955,822.447,621.648,820.33,622.518z"/>
	<path fill="#FFFFFF" d="M500.041,9.33C229.051,9.33,9.371,229.011,9.371,500s219.68,490.67,490.67,490.67
		c270.989,0,490.668-219.681,490.668-490.67S771.03,9.33,500.041,9.33z M665.46,330.618c2.962,7.209,1.771,17.426-3.577,30.643
		c-5.346,13.224-11.308,21.184-17.876,23.881c-4.243,1.744-6.882,1.34-7.927-1.202c-0.696-1.696-0.248-3.616,1.351-5.759
		c1.809-2.229,4.301-6.719,7.472-13.475c3.174-6.75,4.41-10.975,3.713-12.673c-0.262-0.636-1.028-0.694-2.3-0.171
		c-7.423,3.049-15.127,14.146-23.119,33.282c-7.993,19.142-10.598,32.103-7.811,38.884c1.395,3.394,3.942,4.327,7.654,2.802
		c3.706-1.522,8.806-6.155,15.288-13.898c6.482-7.738,14.241-17.8,23.274-30.186c2.942-4.032,5.473-7.487,7.606-10.386
		c1.109-14.692,4.587-32.898,10.442-54.633c11.335-42.063,25.195-81.145,41.586-117.236c16.391-36.092,28.292-55.66,35.714-58.709
		c3.602-1.48,7.678-1.354,12.229,0.366c4.548,1.726,7.89,5.184,10.022,10.377c2.136,5.196,0.499,19.305-4.906,42.336
		c-5.403,23.031-11.902,47.627-19.487,73.783c-9.613,32.69-13.982,50.095-13.113,52.21c0.35,0.851,0.945,1.1,1.795,0.75
		c0.845-0.347,3.732-3.577,8.656-9.688c4.921-6.11,10.459-12.223,16.617-18.348c6.158-6.117,10.559-10.033,13.2-11.739
		c2.647-1.703,5.925-3.364,9.851-4.976c3.919-1.611,8.188-2.371,12.808-2.29c4.619,0.089,7.604,1.771,8.954,5.057
		c1.349,3.289-2.023,16.938-10.121,40.949c-8.101,24.017-11.645,37.242-10.644,39.677c1,2.439,2.56,3.221,4.681,2.35
		c4.452-1.828,11.227-10.058,20.326-24.702c3.481-5.39,5.559-8.474,6.234-9.249c0.669-0.77,1.537-1.375,2.6-1.812
		c2.967-1.218,5.062-0.342,6.281,2.623c0.697,1.699-1.547,6.952-6.717,15.765c-5.175,8.816-11.918,18.032-20.236,27.637
		c-8.316,9.607-16.024,15.875-23.124,18.792c-7.105,2.918-13.646,3.125-19.624,0.629c-5.984-2.495-10.232-6.818-12.761-12.968
		c-4.18-10.175-2.482-26.852,5.091-50.031c0.749-1.794,0.974-3.059,0.667-3.805c-0.305-0.739-0.673-1.025-1.093-0.85
		c-0.429,0.174-1.768,1.282-4.022,3.323c-2.262,2.045-7.518,9.905-15.772,23.575c-8.26,13.677-15.981,27.748-23.164,42.219
		c-7.19,14.473-13.164,22.688-17.935,24.647c-4.768,1.958-9.091,1.383-12.974-1.731c-3.878-3.109-6.864-7.213-8.954-12.3
		c-1.413-3.441-2.398-7.517-2.955-12.228c-9.062,12.776-19.789,26-32.197,39.677c-14.326,15.792-25.355,25.279-33.092,28.459
		c-7.739,3.179-15.341,3.515-22.812,1.008c-7.473-2.504-12.467-6.829-14.994-12.979c-5.224-12.719-4.932-28.134,0.879-46.258
		c5.811-18.116,14.472-34.431,25.976-48.946c11.506-14.51,22.503-23.923,32.997-28.233c10.492-4.311,18.931-6.228,25.321-5.757
		C657.823,319.576,662.5,323.414,665.46,330.618z M384.56,376.888c10.936-22.825,21.139-42.624,30.601-59.396l4.645-8.596
		c3.179-1.307,5.728,0.376,7.642,5.036l7.037,15.318c0.323,2.598-1.124,11.739-4.342,27.426l15.581-6.4
		c6.749-2.772,12.733-5.004,18.006-6.732c3.869-4.254,7.75-7.193,11.646-8.793c7.179-2.949,12.609-1.7,16.293,3.719
		c15.396-8.949,32.045-17.65,49.955-26.102c10.936-22.824,21.14-42.624,30.601-59.396l4.646-8.596
		c3.179-1.306,5.729,0.376,7.642,5.037l7.037,15.317c0.323,2.596-1.124,11.739-4.343,27.427l15.581-6.4
		c23.53-9.666,38.086-12.98,43.667-9.949c5.58,3.038,8.94,5.931,10.071,8.684c1.482,3.606-1.342,6.996-8.46,10.164
		c-7.121,3.176-29.653,12.554-67.597,28.142c-17.514,43.613-29.888,81.029-37.132,112.248c-2.915,11.603-5.373,21.903-7.374,30.9
		c-2.004,9-3.741,15.473-5.214,19.423c-1.478,3.951-3.378,6.405-5.709,7.363c-6.995,2.872-13.892,2.977-20.679,0.319
		c-6.794-2.657-11.58-7.379-14.366-14.166c-7.663-18.651,4.411-63.131,36.233-133.434l-32.067,13.173
		c-0.501,2.407-1.193,4.981-2.086,7.732c-3.394,10.439-9.959,18.277-19.698,23.516c-3.608,1.481-6.992,1.384-10.154-0.291
		c-3.167-1.672-5.483-3.693-6.95-6.062l-1.755-3.367c-0.477-1.619-0.835-3.21-1.102-4.782c-8.388,3.466-18.053,7.447-29.012,11.949
		c-17.514,43.615-29.89,81.029-37.133,112.248c-2.915,11.604-5.373,21.904-7.374,30.902c-2.004,8.999-3.74,15.473-5.214,19.423
		c-1.477,3.949-3.378,6.402-5.708,7.361c-6.996,2.873-13.892,2.978-20.681,0.32c-6.792-2.655-11.579-7.382-14.366-14.167
		c-7.662-18.651,4.411-63.13,36.233-133.433l-48.967,20.116c-8.059,3.31-13.17,2.315-15.348-2.986
		c-1.393-3.388,6.457-10.208,23.557-20.454C345.503,396.405,364.22,386.487,384.56,376.888z M473.896,450.562
		c-4.052,17.272-9.703,34.587-16.944,51.928c-7.248,17.343-13.41,27.064-18.498,29.152c-5.087,2.09-9.854,2.248-14.294,0.485
		c-4.443-1.771-7.622-4.981-9.539-9.647c-6.093-14.835-4.167-35.322,5.783-61.463c9.947-26.133,21.991-43.717,36.12-52.744
		c9.54-3.917,16.618-0.259,21.232,10.975C479.236,422.853,477.949,433.288,473.896,450.562z M244.312,605.82
		c-25.532,21.388-49.738,36.783-72.632,46.189c-47.481,19.504-77.364,14.313-89.643-15.575
		c-5.659-13.777,0.602-29.604,18.775-47.477c9.521,3.278,26.149,0.036,49.893-9.719c16.944-8.196,31.93-17.262,44.944-27.196
		c13.017-9.927,22.677-18.979,28.985-27.142c6.308-8.165,10.899-15.376,13.779-21.64c2.877-6.258,4.027-11.004,3.443-14.236
		c-2.08-3.85-7.569-3.952-16.473-0.295l-67.612,26.29c-13.019,5.103-25.163,6.003-36.426,2.7
		c-11.266-3.299-19.031-10.143-23.299-20.531c-5.832-14.199-1.207-32.637,13.883-55.314c15.086-22.671,35.315-43.989,60.688-63.952
		c25.371-19.958,48.44-34.208,69.217-42.742c41.121-16.893,65.996-14.848,74.616,6.138c2.789,6.787,0.705,22.38-6.237,46.786
		c-6.945,24.408-14.023,38.092-21.226,41.051c-1.487,0.612-3.199,0.515-5.142-0.303c-1.947-0.81-3.35-2.276-4.222-4.397
		c-0.87-2.116,0.134-7.052,3.022-14.805c2.885-7.747,3.806-12.899,2.761-15.443c-0.784-1.908-3.615-1.859-8.489,0.144
		c-13.146,5.4-31.893,18.861-56.247,40.386c-24.36,21.527-35.358,35.151-33.008,40.875c0.958,2.334,3.878,2.809,8.758,1.418
		c4.879-1.383,13.319-4.357,25.324-8.916c12-4.558,22.715-8.032,32.141-10.418c9.426-2.385,17.448-3.509,24.066-3.383
		c6.617,0.133,12.031,0.946,16.238,2.435c4.204,1.496,8.003,3.652,11.39,6.469c5.104,4.593,8.836,9.75,11.188,15.474
		c6.269,15.261,2.14,34.923-12.38,58.969C289.863,561.718,269.839,584.438,244.312,605.82z M516.945,754.208
		c-10.291,9.93-21.082,18.944-32.368,27.048l-17.249,12.29c-10.798,29.211-24.811,52.682-42.053,70.416
		c-17.244,17.733-34.025,29.956-50.346,36.661c-9.331,3.834-18.241,5.507-26.731,5.036c-8.498-0.468-15.481-2.247-20.957-5.326
		c-5.479-3.074-10.453-7.042-14.92-11.896c-6.874-7.081-11.661-13.911-14.361-20.484c-7.488-18.228-10.89-37.207-10.2-56.942
		c0.688-19.729,4.771-38.438,12.247-56.13c7.472-17.685,17.198-34.873,29.172-51.562c11.972-16.685,25.344-31.78,40.116-45.282
		c30.422-27.854,60.474-47.881,90.153-60.075c18.015-7.401,33.37-10.735,46.061-10.003c12.688,0.736,21.037,5.98,25.041,15.728
		c2.874,6.996,0.714,19.53-6.48,37.596c-7.198,18.069-14.399,28.584-21.604,31.544c-4.029,1.654-6.911,0.365-8.654-3.878
		c-1.741-4.236-0.468-11.387,3.823-21.453c4.288-10.058,6.218-15.618,5.781-16.681c-0.435-1.059-1.288-1.33-2.561-0.808
		c-7.209,2.96-16.805,10.062-28.783,21.301c-11.984,11.239-24.326,25.229-37.019,41.963c-12.699,16.738-24.171,34.336-34.428,52.793
		c-10.254,18.463-17.313,37.465-21.176,57.011c-3.86,19.55-2.788,36.635,3.221,51.262c2.527,6.151,6.754,8.004,12.691,5.563
		c9.538-3.918,19.545-12.425,30.021-25.525c10.474-13.093,15.164-21.281,14.072-24.546c-3.092,1.519-5.703,2.713-7.818,3.582
		c-8.059,3.31-15.892,3.99-23.505,2.038c-7.617-1.948-12.924-6.583-15.927-13.898c-3.005-7.312-0.856-16.243,6.454-26.805
		c7.306-10.557,17.519-20.82,30.643-30.797c13.12-9.972,26.623-17.813,40.508-23.519c13.882-5.702,26.171-7.899,36.868-6.599
		c10.694,1.311,18.177,7.157,22.441,17.541C531.297,736.671,527.235,744.285,516.945,754.208z M874.503,602.863
		c-1.606,7.85-6.308,27.618-14.1,59.308c-7.791,31.692-12.339,48.978-13.626,51.864c-1.295,2.882-3.639,5.023-7.026,6.416
		c-3.394,1.395-7.954,0.853-13.677-1.625c-5.727-2.48-9.416-5.738-11.071-9.761c-1.651-4.026-2.76-8.53-3.315-13.505l-0.705-7.144
		c-0.347-0.845-1-1.074-1.952-0.683c-0.955,0.392-5.313,5.469-13.073,15.22c-7.764,9.755-14.613,15.85-20.547,18.287
		c-5.935,2.439-11.471,2.239-16.602-0.612c-5.135-2.845-8.657-6.601-10.574-11.264c-4.777-11.636-5.209-24.88-1.324-39.722
		c-5.713,4.906-10.283,8.07-13.705,9.473c-4.45,1.829-7.602,3.065-9.445,3.695c-1.846,0.639-2.82,2.337-2.921,5.104
		c-3.584,35.91-11.546,60.858-23.882,74.844c-5.395,6.177-11.85,10.815-19.372,13.905c-7.525,3.093-14.696,3.124-21.511,0.104
		c-6.814-3.018-12.444-9.938-16.887-20.749c-4.915-11.965-6.44-24.578-4.604-37.831c-2.953,2.172-5.481,3.696-7.577,4.557
		c-4.452,1.831-7.603,3.064-9.444,3.694c-1.848,0.638-2.821,2.337-2.921,5.104c-3.586,35.912-11.548,60.858-23.884,74.845
		c-5.395,6.176-11.85,10.815-19.372,13.903c-7.526,3.094-14.696,3.123-21.512,0.105c-6.813-3.019-12.443-9.938-16.886-20.75
		c-6.181-15.05-7.022-31.12-2.521-48.204c4.502-17.087,11.653-31.482,21.462-43.192c9.809-11.706,19.799-19.653,29.975-23.832
		c17.953-5.146,28.673-3.479,32.154,4.999c0.961,2.335,1.223,4.642,0.8,6.919c-0.428,2.283-0.947,3.731-1.556,4.354
		c-0.615,0.624-1.404,1.263-2.375,1.905c-2.284,1.682-2.945,3.688-1.989,6.019c2.353,5.725,6.915,7.191,13.702,4.406
		c5.15-2.115,10.287-5.467,15.412-10.009c4.529-14.986,11.205-27.799,20.077-38.39c9.807-11.704,19.799-19.652,29.973-23.831
		c17.953-5.146,28.675-3.479,32.155,4.999c0.958,2.335,1.224,4.642,0.798,6.919c-0.426,2.284-0.944,3.734-1.554,4.354
		c-0.615,0.625-1.403,1.261-2.378,1.905c-2.281,1.679-2.944,3.688-1.985,6.019c2.351,5.722,6.914,7.192,13.701,4.405
		c6.358-2.613,12.701-7.076,19.026-13.391c2.484-2.479,4.521-4.485,6.129-6.031c6.033-13.613,13.771-25.782,23.228-36.501
		c12-13.6,23.618-22.706,34.855-27.324c6.996-2.875,12.641-4.2,16.941-3.987c4.302,0.218,6.661,0.236,7.089,0.063l0.635-0.263
		c0.424-0.174,0.592-0.367,0.506-0.581c9.459-30.642,22.132-64.771,38.02-102.392c15.888-37.615,27.855-58.082,35.914-61.392
		c3.563-0.964,7.824,0.501,12.774,4.413c4.953,3.911,8.754,8.797,11.404,14.641c0.646,5.188-8.935,32.229-28.739,81.113
		C886.815,566.652,876.11,595.021,874.503,602.863z"/>
</g>
</svg>
