<?xml version="1.0" encoding="utf-8"?>
<!-- Generator: Adobe Illustrator 16.0.0, SVG Export Plug-In . SVG Version: 6.00 Build 0)  -->
<!DOCTYPE svg PUBLIC "-//W3C//DTD SVG 1.1//EN" "http://www.w3.org/Graphics/SVG/1.1/DTD/svg11.dtd">
<svg version="1.1" id="Layer_1" xmlns="http://www.w3.org/2000/svg" xmlns:xlink="http://www.w3.org/1999/xlink" x="0px" y="0px"
	 width="50px" height="50px" viewBox="0 0 50 50" enable-background="new 0 0 50 50" xml:space="preserve">
<g>
	<path fill="#AAABBD" d="M24.858,0h0.283c5.066,0,9.802,1.492,14.205,4.475c0.899,0.639,1.848,1.42,2.842,2.344
		c1.184,1.16,1.953,1.988,2.309,2.486c0.923,1.184,1.621,2.189,2.095,3.018C48.863,16.277,50,20.455,50,24.858v0.284
		c0,5.067-1.491,9.801-4.475,14.206c-0.639,0.899-1.42,1.846-2.344,2.84c-1.16,1.186-1.988,1.953-2.486,2.31
		c-1.184,0.923-2.189,1.621-3.019,2.095C33.725,48.863,29.546,50,25.142,50h-0.283c-5.067,0-9.802-1.491-14.205-4.475
		c-0.9-0.64-1.847-1.42-2.841-2.344c-1.184-1.158-1.953-1.988-2.308-2.486c-0.923-1.184-1.622-2.188-2.095-3.019
		C1.136,33.725,0,29.545,0,25.142v-0.284c0-5.065,1.492-9.801,4.475-14.205c0.639-0.899,1.42-1.847,2.344-2.841
		c1.159-1.184,1.988-1.953,2.486-2.308c1.184-0.923,2.189-1.621,3.018-2.095C16.276,1.136,20.455,0,24.858,0z M25.568,20.17v0.142
		c0,0.379,0.059,0.829,0.178,1.35H25.71c-0.474,0-1.385-0.107-2.734-0.32c-1.136-0.26-2.154-0.568-3.054-0.923
		c-0.947-0.378-1.965-0.911-3.054-1.598c-0.829-0.52-1.752-1.254-2.77-2.202c-0.521-0.544-1.007-1.065-1.456-1.562
		c-0.545,1.042-0.817,2.06-0.817,3.054v0.249c0,1.373,0.497,2.699,1.492,3.977c0.497,0.568,0.911,0.947,1.243,1.137v0.035
		c-0.852,0-1.788-0.26-2.805-0.781v0.178c0,1.657,0.639,3.138,1.917,4.438c0.804,0.734,1.55,1.207,2.237,1.421
		c0.449,0.166,0.733,0.248,0.852,0.248c0,0.049-0.237,0.106-0.71,0.178c-0.284,0.049-0.497,0.072-0.639,0.072H15.27
		c-0.048,0-0.083,0-0.106,0h-0.107h-0.035c-0.308,0-0.663-0.035-1.065-0.107c0.52,1.47,1.385,2.58,2.592,3.339
		c1.088,0.688,2.189,1.028,3.303,1.028c-0.616,0.521-1.208,0.925-1.776,1.209c-1.965,0.994-3.906,1.49-5.824,1.49h-0.426
		c-0.426,0-0.865-0.021-1.314-0.07c1.184,0.781,2.474,1.408,3.871,1.882c1.917,0.663,3.871,0.995,5.859,0.995
		c3.219,0,6.191-0.746,8.914-2.237c0.876-0.474,1.822-1.147,2.841-2.024c0.971-0.875,1.633-1.55,1.987-2.023
		c0.854-1.041,1.562-2.105,2.132-3.196c0.401-0.731,0.78-1.584,1.136-2.557c0.688-2.036,1.03-3.953,1.03-5.752v-0.923v-0.178
		c0.354-0.213,0.946-0.722,1.774-1.527c0.592-0.639,1.055-1.219,1.385-1.74h-0.034c-0.806,0.332-1.634,0.604-2.485,0.817
		c-0.64,0.095-0.995,0.142-1.064,0.142v-0.036c0.26-0.094,0.697-0.438,1.312-1.03c0.71-0.829,1.184-1.633,1.421-2.415
		c-0.829,0.497-1.692,0.888-2.593,1.172c-0.805,0.237-1.29,0.355-1.456,0.355c-0.592-0.568-1.041-0.923-1.351-1.065
		c-1.018-0.615-2.094-0.923-3.23-0.923h-0.035c-1.681,0-3.16,0.604-4.439,1.811C26.207,16.998,25.568,18.49,25.568,20.17z"/>
</g>
</svg>
