<?xml version="1.0" encoding="utf-8"?>
<!-- Generator: Adobe Illustrator 16.0.0, SVG Export Plug-In . SVG Version: 6.00 Build 0)  -->
<!DOCTYPE svg PUBLIC "-//W3C//DTD SVG 1.1//EN" "http://www.w3.org/Graphics/SVG/1.1/DTD/svg11.dtd">
<svg version="1.1" id="Layer_1" xmlns="http://www.w3.org/2000/svg" xmlns:xlink="http://www.w3.org/1999/xlink" x="0px" y="0px"
	 width="1000px" height="1000px" viewBox="0 0 1000 1000" enable-background="new 0 0 1000 1000" xml:space="preserve">
<g>
	<g>
		<path d="M884.148,214.844c17.258,0,31.25,13.992,31.25,31.25s-13.992,31.25-31.25,31.25h-80.367v-62.5H884.148 M884.148,195.844
			h-80.367h-19v19v62.5v19h19h80.367c27.708,0,50.25-22.542,50.25-50.25S911.856,195.844,884.148,195.844L884.148,195.844z"/>
	</g>
	<g>
		<path d="M884.148,468.75c17.258,0,31.25,13.992,31.25,31.25s-13.992,31.25-31.25,31.25h-80.367v-62.5H884.148 M884.148,449.75
			h-80.367h-19v19v62.5v19h19h80.367c27.708,0,50.25-22.542,50.25-50.25S911.856,449.75,884.148,449.75L884.148,449.75z"/>
	</g>
	<g>
		<path d="M884.148,722.656c17.258,0,31.25,13.992,31.25,31.25s-13.992,31.25-31.25,31.25h-80.367v-62.5H884.148 M884.148,703.656
			h-80.367h-19v19v62.5v19h19h80.367c27.708,0,50.25-22.542,50.25-50.25S911.856,703.656,884.148,703.656L884.148,703.656z"/>
	</g>
	<g>
		<path d="M753.906,87.602c17.258,0,31.25,13.988,31.25,31.25v762.297c0,17.258-13.992,31.25-31.25,31.25s-31.25-13.992-31.25-31.25
			v-95.992H550.781v-62.5h171.875V531.25H550.781v-62.5h171.875V277.344H550.781v-62.5h171.875v-95.992
			C722.656,101.594,736.648,87.602,753.906,87.602 M753.906,68.602c-27.708,0-50.25,22.542-50.25,50.25v76.992H550.781h-19v19v62.5
			v19h19h152.875V449.75H550.781h-19v19v62.5v19h19h152.875v153.406H550.781h-19v19v62.5v19h19h152.875v76.992
			c0,27.708,22.542,50.25,50.25,50.25s50.25-22.542,50.25-50.25V118.852C804.156,91.144,781.614,68.602,753.906,68.602
			L753.906,68.602z"/>
	</g>
	<g>
		<path d="M500,87.602c17.258,0,31.25,13.988,31.25,31.25v762.297c0,17.258-13.992,31.25-31.25,31.25s-31.25-13.992-31.25-31.25
			v-95.992H296.875v-62.5H468.75V531.25H296.875v-62.5H468.75V277.344H296.875v-62.5H468.75v-95.992
			C468.75,101.594,482.742,87.602,500,87.602 M500,68.602c-27.708,0-50.25,22.542-50.25,50.25v76.992H296.875h-19v19v62.5v19h19
			H449.75V449.75H296.875h-19v19v62.5v19h19H449.75v153.406H296.875h-19v19v62.5v19h19H449.75v76.992
			c0,27.708,22.542,50.25,50.25,50.25s50.25-22.542,50.25-50.25V118.852C550.25,91.144,527.708,68.602,500,68.602L500,68.602z"/>
	</g>
	<g>
		<path d="M246.094,87.602c17.258,0,31.25,13.988,31.25,31.25v762.297c0,17.258-13.992,31.25-31.25,31.25s-31.25-13.992-31.25-31.25
			v-95.992h-95.992c-17.258,0-31.25-13.992-31.25-31.25s13.992-31.25,31.25-31.25h95.992V531.25h-95.992
			c-17.258,0-31.25-13.992-31.25-31.25s13.992-31.25,31.25-31.25h95.992V277.344h-95.992c-17.258,0-31.25-13.992-31.25-31.25
			s13.992-31.25,31.25-31.25h95.992v-95.992C214.844,101.594,228.836,87.602,246.094,87.602 M246.094,68.602
			c-27.708,0-50.25,22.542-50.25,50.25v76.992h-76.992c-27.708,0-50.25,22.542-50.25,50.25s22.542,50.25,50.25,50.25h76.992V449.75
			h-76.992c-27.708,0-50.25,22.542-50.25,50.25s22.542,50.25,50.25,50.25h76.992v153.406h-76.992
			c-27.708,0-50.25,22.542-50.25,50.25s22.542,50.25,50.25,50.25h76.992v76.992c0,27.708,22.542,50.25,50.25,50.25
			s50.25-22.542,50.25-50.25V118.852C296.344,91.144,273.802,68.602,246.094,68.602L246.094,68.602z"/>
	</g>
</g>
</svg>
